# Blender 5.0.0
# www.blender.org
mtllib pig.mtl
o pig
v -9.903844 0.316015 9.536595
v -9.903845 -15.530158 9.536517
v 9.903846 0.316015 9.536591
v 9.903845 -15.530158 9.536513
v -9.903845 -27.414684 -14.289586
v -9.903829 -27.414682 -22.212671
v -1.980769 -27.414711 -14.289570
v -1.980753 -27.414709 -22.212654
v 1.980771 -27.414755 -14.289537
v 1.980770 -27.414852 -22.212620
v 9.903846 -27.414751 -14.289539
v 9.903844 -27.414848 -22.212624
v -9.903853 -15.530016 -0.367356
v -9.903832 -27.414728 -0.367329
v -9.903847 -15.529971 7.555726
v -9.903830 -27.414730 7.555754
v -1.980779 -15.530139 -0.367363
v -1.980772 -15.530093 7.555718
v -1.980759 -27.414700 -0.367332
v -1.980757 -27.414701 7.555752
v 1.980762 -27.414713 7.555741
v 9.903835 -27.414715 7.555751
v 1.980776 -15.530064 7.555704
v 9.903848 -15.530069 7.555700
v 9.903846 -15.530128 -0.367382
v 9.903845 -27.414709 -0.367332
v 1.980773 -15.530122 -0.367379
v 1.980772 -27.414707 -0.367342
v -1.980915 -15.530078 -22.212654
v -1.980948 -15.530064 -14.289568
v -9.903990 -15.530370 -22.212688
v -9.904024 -15.530348 -14.289601
v 1.980772 -15.530085 -14.289567
v 9.903847 -15.530086 -14.289566
v 9.903848 -15.530079 -22.212650
v 1.980773 -15.530079 -22.212650
v 3.961535 -7.015955 21.356495
v -3.961531 -7.015955 21.356495
v 3.961535 -7.015948 23.337269
v -3.961531 -7.015948 23.337269
v 3.961535 -12.958267 21.356512
v 3.961535 -12.958261 23.337286
v -3.961532 -12.958267 21.356512
v -3.961531 -12.958261 23.337286
v -7.923080 -14.939031 21.356522
v -7.923080 0.907136 21.356470
v -7.923083 -14.939081 5.510355
v -7.923083 0.907084 5.510304
v 7.923083 -14.939081 5.510353
v 7.923083 0.907085 5.510302
v 7.923085 -14.939031 21.356518
v 7.923085 0.907137 21.356466
v -9.903846 -15.530128 -20.231884
v -9.903846 0.316046 -20.231932
v 9.903844 0.316048 -20.231934
v 9.903844 -15.530127 -20.231886
vn -0.0000 -0.0000 1.0000
vn -0.0000 -1.0000 -0.0000
vn -1.0000 -0.0000 -0.0000
vn -0.0000 1.0000 -0.0000
vn -0.0000 -0.0000 -1.0000
vn 1.0000 -0.0000 -0.0000
vt 0.562500 -0.250000
vt 0.562500 -0.500000
vt 0.718750 -0.250000
vt 0.718750 -0.500000
vt 0.125000 -0.625000
vt 0.125000 -0.500000
vt 0.187500 -0.625000
vt 0.187500 -0.500000
vt 0.000000 -0.625000
vt 0.000000 -0.812500
vt 0.062500 -0.625000
vt 0.062500 -0.812500
vt 0.062500 -0.500000
vt 0.187500 -0.812500
vt 0.250000 -0.625000
vt 0.250000 -0.812500
vt 0.125000 -0.812500
vt 0.218750 -0.390630
vt 0.156250 -0.390630
vt 0.210930 -0.468750
vt 0.210930 -0.375000
vt 0.156250 -0.453130
vt 0.218750 -0.453130
vt 0.164060 -0.375000
vt 0.164060 -0.468750
vt 0.266124 0.468803
vt 0.266124 0.375053
vt 0.328624 0.468803
vt 0.328624 0.375053
vt 0.125000 -0.250000
vt 0.000000 -0.500000
vt 0.000000 -0.250000
vt 0.500000 -0.500000
vt 0.500000 -0.250000
vt 0.375000 -0.500000
vt 0.375000 -0.250000
vt 0.250000 0.000000
vt 0.250000 -0.250000
vt 0.375000 0.000000
vt 0.125000 0.000000
vt 0.250000 -0.500000
vt 0.562500 -1.000000
vt 0.437500 -1.000000
vt 0.437500 -0.500000
vt 0.843750 -1.000000
vt 0.843750 -0.500000
vt 0.718750 -1.000000
vt 1.000000 -1.000000
vt 1.000000 -0.500000
vt 0.875000 -0.500000
vt 0.875000 -0.250000
vt 0.156250 -0.375000
vt 0.218750 -0.375000
vt 0.218750 -0.468750
vt 0.156250 -0.468750
s 1
usemtl pig
f 1/1/1 2/2/1 3/3/1
f 3/3/1 2/2/1 4/4/1
f 5/5/2 6/6/2 7/7/2
f 7/7/2 6/6/2 8/8/2
f 9/5/2 10/6/2 11/7/2
f 11/7/2 10/6/2 12/8/2
f 13/9/3 14/10/3 15/11/3
f 15/11/3 14/10/3 16/12/3
f 13/13/4 15/11/4 17/6/4
f 17/6/4 15/11/4 18/5/4
f 17/7/5 19/14/5 13/15/5
f 13/15/5 19/14/5 14/16/5
f 15/11/1 16/12/1 18/5/1
f 18/5/1 16/12/1 20/17/1
f 20/17/6 19/14/6 18/5/6
f 18/5/6 19/14/6 17/7/6
f 21/12/1 22/17/1 23/11/1
f 23/11/1 22/17/1 24/5/1
f 25/7/5 26/14/5 27/15/5
f 27/15/5 26/14/5 28/16/5
f 28/10/3 21/12/3 27/9/3
f 27/9/3 21/12/3 23/11/3
f 22/17/6 26/14/6 24/5/6
f 24/5/6 26/14/6 25/7/6
f 27/13/4 23/11/4 25/6/4
f 25/6/4 23/11/4 24/5/4
f 8/14/6 29/7/6 7/17/6
f 7/17/6 29/7/6 30/5/6
f 6/10/3 5/12/3 31/9/3
f 31/9/3 5/12/3 32/11/3
f 8/14/5 6/16/5 29/7/5
f 29/7/5 6/16/5 31/15/5
f 7/17/1 30/5/1 5/12/1
f 5/12/1 30/5/1 32/11/1
f 31/13/4 32/11/4 29/6/4
f 29/6/4 32/11/4 30/5/4
f 9/12/1 11/17/1 33/11/1
f 33/11/1 11/17/1 34/5/1
f 12/14/5 10/16/5 35/7/5
f 35/7/5 10/16/5 36/15/5
f 10/10/3 9/12/3 36/9/3
f 36/9/3 9/12/3 33/11/3
f 11/17/6 12/14/6 34/5/6
f 34/5/6 12/14/6 35/7/6
f 36/13/4 33/11/4 35/6/4
f 35/6/4 33/11/4 34/5/4
f 37/18/4 38/19/4 39/18/4
f 39/18/4 38/19/4 40/19/4
f 41/20/6 37/21/6 42/20/6
f 42/20/6 37/21/6 39/21/6
f 43/22/2 41/23/2 44/22/2
f 44/22/2 41/23/2 42/23/2
f 38/24/3 43/25/3 40/24/3
f 40/24/3 43/25/3 44/25/3
f 40/26/1 44/27/1 39/28/1
f 39/28/1 44/27/1 42/29/1
f 45/6/3 46/30/3 47/31/3
f 47/31/3 46/30/3 48/32/3
f 47/33/5 48/34/5 49/35/5
f 49/35/5 48/34/5 50/36/5
f 45/37/2 47/38/2 51/39/2
f 51/39/2 47/38/2 49/36/2
f 48/40/4 46/30/4 50/37/4
f 50/37/4 46/30/4 52/38/4
f 52/38/6 51/41/6 50/36/6
f 50/36/6 51/41/6 49/35/6
f 16/5/2 14/6/2 20/7/2
f 20/7/2 14/6/2 19/8/2
f 21/5/2 28/6/2 22/7/2
f 22/7/2 28/6/2 26/8/2
f 53/42/3 2/2/3 54/43/3
f 54/43/3 2/2/3 1/44/3
f 55/45/6 3/46/6 56/47/6
f 56/47/6 3/46/6 4/4/6
f 55/45/4 54/48/4 3/46/4
f 3/46/4 54/48/4 1/49/4
f 56/4/2 4/47/2 53/2/2
f 53/2/2 4/47/2 2/42/2
f 53/50/5 54/51/5 56/4/5
f 56/4/5 54/51/5 55/3/5
f 46/30/1 38/52/1 52/38/1
f 52/38/1 38/52/1 37/53/1
f 52/38/1 37/53/1 51/41/1
f 51/41/1 37/53/1 41/54/1
f 43/55/1 51/41/1 41/54/1
f 45/6/1 51/41/1 43/55/1
f 38/52/1 45/6/1 43/55/1
f 46/30/1 45/6/1 38/52/1
